<?xml version="1.0" encoding="UTF-8" standalone="no"?>
<!-- Created with Inkscape (http://www.inkscape.org/) -->

<svg
   xmlns:dc="http://purl.org/dc/elements/1.1/"
   xmlns:cc="http://creativecommons.org/ns#"
   xmlns:rdf="http://www.w3.org/1999/02/22-rdf-syntax-ns#"
   xmlns:svg="http://www.w3.org/2000/svg"
   xmlns="http://www.w3.org/2000/svg"
   xmlns:sodipodi="http://sodipodi.sourceforge.net/DTD/sodipodi-0.dtd"
   xmlns:inkscape="http://www.inkscape.org/namespaces/inkscape"
   id="svg2"
   version="1.1"
   inkscape:version="0.91 r13725"
   width="1044.4109"
   height="2357.9749"
   sodipodi:docname="Jiu-Jitsu.svg"
   inkscape:export-xdpi="90"
   inkscape:export-ydpi="90">
  <title
     id="title2824">Jiu Jitsu</title>
  <metadata
     id="metadata8">
    <rdf:RDF>
      <cc:Work
         rdf:about="">
        <dc:format>image/svg+xml</dc:format>
        <dc:type
           rdf:resource="http://purl.org/dc/dcmitype/StillImage" />
        <dc:title>Jiu Jitsu</dc:title>
      </cc:Work>
    </rdf:RDF>
  </metadata>
  <defs
     id="defs6" />
  <sodipodi:namedview
     pagecolor="#ffffff"
     bordercolor="#666666"
     borderopacity="1"
     objecttolerance="10"
     gridtolerance="10"
     guidetolerance="10"
     inkscape:pageopacity="0"
     inkscape:pageshadow="2"
     inkscape:window-width="1680"
     inkscape:window-height="987"
     id="namedview4"
     showgrid="false"
     inkscape:zoom="0.27747626"
     inkscape:cx="-570.48891"
     inkscape:cy="1172.8917"
     inkscape:window-x="-8"
     inkscape:window-y="-8"
     inkscape:window-maximized="1"
     inkscape:current-layer="svg2"
     fit-margin-top="10"
     fit-margin-left="10"
     fit-margin-right="10"
     fit-margin-bottom="10" />
  <g
     id="g2818"
     transform="translate(-500.12707,-288.91693)">
    <path
       style="fill:#fff;fill-opacity:1"
       d="m 1337.5,2635.1293 c 2.6572,-89.5075 -153.0127,-98.5426 -142.768,-155.6697 160.6674,49.2655 129.9048,-120.6853 126.0035,-220.8648 11.1392,-97.9755 -28.218,-203.8282 -138.2351,-152.5107 -61.4633,-34.1588 -73.2303,-97.7993 16.8631,-69.6387 106.018,-8.949 211.1734,-74.1807 317.5623,-46.1431 92.1933,124.6389 -211.622,17.3022 -128.9902,156.3102 -2.9207,147.3207 29.2469,297.7858 -5.8774,442.7296 -8.4995,16.6466 -16.1019,56.3537 -44.5582,45.7872 z m -681.66165,-6.3111 c -61.52858,-99.9064 4.48023,-223.4151 -4.17341,-333.5739 29.77571,-75.9128 -30.3147,-120.1446 -74.16494,-41.1058 -57.09088,77.7609 -102.46025,22.0416 -29.83918,-33.8323 60.55476,-77.699 120.00569,-170.1602 114.46144,-271.6772 103.38467,-2.888 131.64418,115.5381 44.8801,172.2644 -11.65576,114.3211 7.41337,239.2916 -8.51374,357.9344 -12.54255,36.4562 18.8877,153.8907 -42.65027,149.9904 z M 980,2608.0457 C 929.02603,2560.7011 960.67902,2478.4721 952.0935,2416.6413 948.04354,2290.8456 971.86,2159.6172 946.24697,2037.518 881.47195,2077.6902 724.06462,1970.06 865,1981.1306 c 145.7087,-1.7853 45.23416,-193.8298 45.5,-261.78 129.5385,-9.8532 112.1025,119.2287 107.8846,208.541 56.1305,-18.6102 201.4005,21.0487 96.5459,74.1275 -162.66995,-9.522 -69.3192,187.4248 -95.9867,284.2167 -12.364,104.4776 34.4447,232.8404 -28.89019,321.6174 l -10.05341,0.1925 z M 748.54047,2483.2602 c 18.35042,-87.7331 62.74222,-174.4056 75.08278,-266.1787 19.2374,-64.9232 -10.64426,-191.3114 85.83804,-108.1828 23.53583,66.6485 -46.36694,157.5302 -61.46129,235.1215 -31.13922,44.565 -48.31988,121.5571 -99.45953,139.24 z m 412.61683,-73.8385 c -64.6072,-75.3327 -50.4862,-196.8079 -112.1781,-278.9342 -8.3535,-81.9169 128.0411,66.4705 140.7939,118.421 25.6092,43.6353 51.3144,169.8634 -28.6158,160.5132 z M 542.42096,1973.6319 c 4.31786,-80.7185 123.37922,-143.0714 105.83172,-241.9221 153.30046,34.1572 54.56051,171.4609 -42.89267,207.5907 -25.82549,3.3894 -34.92989,41.9028 -62.93905,34.3314 z m 595.72244,-60.6508 c -78.175,-40.8988 -107.4502,-159.4866 10.4885,-83.9234 39.491,15.5074 48.6999,94.8241 -10.4885,83.9234 z M 1247,1870.9399 c -73.513,-17.0452 -54.7848,-106.6306 27.8849,-74.7629 53.0262,-17.4609 160.8343,-92.3295 182.6824,-4.6571 -30.8034,70.0261 -143.3411,72.9876 -210.5673,79.42 z M 968.31459,1275.8987 c -18.00777,-53.1815 -133.51404,-114.2492 -25.4388,-132.4039 8.23556,-42.0528 17.77744,-202.25999 -35.22949,-149.18261 -69.55597,84.47031 -148.11456,172.50211 -261.48609,191.68861 -40.6789,-40.8404 133.7697,-104.7204 156.83804,-172.5008 84.90762,-106.12601 -124.84055,6.6965 -175.70858,-4.2777 -54.77221,-8.4446 -103.55773,-114.49068 -1.13591,-81.89346 C 717.13848,919.9593 820.8268,901.84489 903,870.09679 877.78514,814.4446 974.59263,822.30414 883.12507,794 810.20673,749.85171 1015.3585,757.98952 937.79213,666.18542 869.00767,648.82308 815.58032,763.76757 738.4495,775.57228 696.17964,809.39017 573.68678,791.63747 678.70453,757.0536 717.70582,727.93042 890.93508,635.24267 816.14127,602.86982 768.31278,641.412 623.38589,660.59961 670.5545,570.9321 728.34557,562.56131 898.68205,571.08481 883.5,505.25892 837.46989,425.49683 717.5175,477.61175 711.15107,367.42343 744.0157,346.14843 834.56426,366.35997 891.5,342.01539 c 92.49286,7.30377 175.7623,-99.6566 242,-1.22642 -5.3802,77.57664 -129.1621,84.65821 -147.09955,158.12843 78.12995,27.80943 162.53605,-77.25014 221.76855,-26.14684 132.34,67.54887 -20.6113,120.99198 -85.7329,155.35622 -88.8284,51.68873 -93.7733,-50.9886 -16.3278,-82.08853 -21.7467,-23.54259 -110.18299,15.8161 -148.1083,23.26131 76.2512,71.32677 16.66098,196.4011 39.2235,281.00895 105.5888,11.59844 207.371,-55.39046 309.1496,-21.43373 107.8677,30.89783 1.1887,120.18018 -64.592,68.34905 -48.1657,10.49154 -215.857,-7.96053 -130.031,69.82947 71.5893,57.1741 150.9082,103.7846 239.7418,126.9444 137.1547,45.7175 -40.7486,83.8007 -99.4108,89.0457 -86.8022,-61.9127 -154.8015,-150.0881 -228.073,-226.50793 -49.38567,-9.01289 -20.9138,80.37233 -28.4973,114.02163 -12.9038,57.6913 30.5323,177.1626 -27.19621,205.3416 z M 933.95562,463.02264 c 73.52678,-73.99573 -21.47293,-26.28954 -63.85327,-31.46284 -7.82018,17.60663 48.08133,35.951 63.85327,31.46284 z"
       id="path2820"
       inkscape:connector-curvature="0" />
  </g>
</svg>
